<mxfile host="app.diagrams.net" modified="2022-07-19T15:45:19.236Z" agent="5.0 (Macintosh; Intel Mac OS X 10_15_7) AppleWebKit/537.36 (KHTML, like Gecko) Chrome/103.0.0.0 Safari/537.36" etag="1UctcCwqruI-Hq9zMADP" version="20.1.1" type="github">
  <diagram id="WAzO3WtMI_GyH3f_W9UE" name="Page-1">
    <mxGraphModel dx="1960" dy="1042" grid="1" gridSize="10" guides="1" tooltips="1" connect="1" arrows="1" fold="1" page="1" pageScale="1" pageWidth="827" pageHeight="1169" math="0" shadow="0">
      <root>
        <mxCell id="0" />
        <mxCell id="1" parent="0" />
        <mxCell id="6SteIcs9atlxRpSBMP28-92" value="" style="rounded=0;whiteSpace=wrap;html=1;fontSize=20;fillColor=#f8cecc;dashed=1;strokeColor=#b85450;" vertex="1" parent="1">
          <mxGeometry x="319" y="301" width="229.5" height="105" as="geometry" />
        </mxCell>
        <mxCell id="6SteIcs9atlxRpSBMP28-91" value="" style="rounded=0;whiteSpace=wrap;html=1;fontSize=20;fillColor=#fff2cc;dashed=1;strokeColor=#d6b656;" vertex="1" parent="1">
          <mxGeometry x="343.75" y="200" width="171" height="100" as="geometry" />
        </mxCell>
        <mxCell id="6SteIcs9atlxRpSBMP28-90" value="" style="rounded=0;whiteSpace=wrap;html=1;fontSize=20;fillColor=#dae8fc;dashed=1;strokeColor=#6c8ebf;" vertex="1" parent="1">
          <mxGeometry x="369.75" y="80" width="119" height="120" as="geometry" />
        </mxCell>
        <mxCell id="6SteIcs9atlxRpSBMP28-93" value="" style="edgeStyle=orthogonalEdgeStyle;rounded=0;orthogonalLoop=1;jettySize=auto;html=1;fontSize=20;" edge="1" parent="1" source="6SteIcs9atlxRpSBMP28-1" target="6SteIcs9atlxRpSBMP28-2">
          <mxGeometry relative="1" as="geometry" />
        </mxCell>
        <mxCell id="6SteIcs9atlxRpSBMP28-94" value="" style="edgeStyle=orthogonalEdgeStyle;rounded=0;orthogonalLoop=1;jettySize=auto;html=1;fontSize=20;" edge="1" parent="1" source="6SteIcs9atlxRpSBMP28-1" target="6SteIcs9atlxRpSBMP28-2">
          <mxGeometry relative="1" as="geometry" />
        </mxCell>
        <mxCell id="6SteIcs9atlxRpSBMP28-1" value="&lt;font style=&quot;font-size: 30px;&quot;&gt;Latent&lt;/font&gt;" style="rounded=0;whiteSpace=wrap;html=1;" vertex="1" parent="1">
          <mxGeometry x="80" y="60" width="181" height="39" as="geometry" />
        </mxCell>
        <mxCell id="6SteIcs9atlxRpSBMP28-2" value="&lt;font style=&quot;font-size: 30px;&quot;&gt;&lt;span style=&quot;&quot;&gt;Middle&lt;/span&gt;&lt;br&gt;&lt;font style=&quot;font-size: 30px;&quot;&gt;(Middle Block x8)&lt;/font&gt;&lt;br&gt;&lt;/font&gt;" style="rounded=0;whiteSpace=wrap;html=1;" vertex="1" parent="1">
          <mxGeometry x="80" y="128" width="181" height="109" as="geometry" />
        </mxCell>
        <mxCell id="6SteIcs9atlxRpSBMP28-3" value="&lt;font style=&quot;font-size: 30px;&quot;&gt;Semantics&lt;/font&gt;" style="rounded=0;whiteSpace=wrap;html=1;" vertex="1" parent="1">
          <mxGeometry x="80" y="271" width="181" height="69" as="geometry" />
        </mxCell>
        <mxCell id="6SteIcs9atlxRpSBMP28-71" value="" style="endArrow=classic;html=1;rounded=0;fontSize=20;exitX=0.5;exitY=1;exitDx=0;exitDy=0;entryX=0.5;entryY=0;entryDx=0;entryDy=0;" edge="1" parent="1" source="6SteIcs9atlxRpSBMP28-2" target="6SteIcs9atlxRpSBMP28-3">
          <mxGeometry width="50" height="50" relative="1" as="geometry">
            <mxPoint x="148.58000000000044" y="380" as="sourcePoint" />
            <mxPoint x="149" y="430" as="targetPoint" />
          </mxGeometry>
        </mxCell>
        <mxCell id="6SteIcs9atlxRpSBMP28-73" value="&lt;font style=&quot;font-size: 23px;&quot;&gt;LTL&lt;/font&gt;" style="rounded=0;whiteSpace=wrap;html=1;fontSize=20;fillColor=default;" vertex="1" parent="1">
          <mxGeometry x="389.75" y="91" width="80" height="40" as="geometry" />
        </mxCell>
        <mxCell id="6SteIcs9atlxRpSBMP28-74" value="&lt;font style=&quot;font-size: 22px;&quot;&gt;conv2D&lt;/font&gt;" style="rounded=0;whiteSpace=wrap;html=1;fontSize=20;fillColor=default;" vertex="1" parent="1">
          <mxGeometry x="385.25" y="150" width="89" height="40" as="geometry" />
        </mxCell>
        <mxCell id="6SteIcs9atlxRpSBMP28-79" value="" style="endArrow=classic;html=1;rounded=0;fontSize=20;entryX=0.5;entryY=0;entryDx=0;entryDy=0;" edge="1" parent="1" target="6SteIcs9atlxRpSBMP28-74">
          <mxGeometry width="50" height="50" relative="1" as="geometry">
            <mxPoint x="429.75000000000045" y="131" as="sourcePoint" />
            <mxPoint x="379.75000000000045" y="81" as="targetPoint" />
          </mxGeometry>
        </mxCell>
        <mxCell id="6SteIcs9atlxRpSBMP28-80" value="&lt;font style=&quot;font-size: 22px;&quot;&gt;conv2D&lt;/font&gt;" style="rounded=0;whiteSpace=wrap;html=1;fontSize=20;fillColor=default;" vertex="1" parent="1">
          <mxGeometry x="360.25" y="231" width="139" height="40" as="geometry" />
        </mxCell>
        <mxCell id="6SteIcs9atlxRpSBMP28-82" value="&lt;font style=&quot;font-size: 22px;&quot;&gt;conv2D&lt;/font&gt;" style="rounded=0;whiteSpace=wrap;html=1;fontSize=20;fillColor=default;" vertex="1" parent="1">
          <mxGeometry x="341.75" y="337" width="184" height="40" as="geometry" />
        </mxCell>
        <mxCell id="6SteIcs9atlxRpSBMP28-83" value="" style="group" vertex="1" connectable="0" parent="1">
          <mxGeometry x="29" y="420" width="300" height="520" as="geometry" />
        </mxCell>
        <mxCell id="6SteIcs9atlxRpSBMP28-65" value="" style="rounded=1;whiteSpace=wrap;html=1;fontSize=16;" vertex="1" parent="6SteIcs9atlxRpSBMP28-83">
          <mxGeometry y="15.853658536585366" width="300" height="504.1463414634146" as="geometry" />
        </mxCell>
        <mxCell id="6SteIcs9atlxRpSBMP28-5" value="&lt;font style=&quot;font-size: 16px;&quot;&gt;input&lt;/font&gt;" style="rounded=0;whiteSpace=wrap;html=1;fontSize=20;align=center;" vertex="1" parent="6SteIcs9atlxRpSBMP28-83">
          <mxGeometry x="12" y="44.390243902439025" width="270" height="21.13821138211382" as="geometry" />
        </mxCell>
        <mxCell id="6SteIcs9atlxRpSBMP28-6" value="&lt;font style=&quot;font-size: 16px;&quot;&gt;Conv2D_BN_ReLU&lt;/font&gt;" style="rounded=0;whiteSpace=wrap;html=1;fontSize=20;" vertex="1" parent="6SteIcs9atlxRpSBMP28-83">
          <mxGeometry x="12" y="65.52845528455285" width="270" height="31.70731707317073" as="geometry" />
        </mxCell>
        <mxCell id="6SteIcs9atlxRpSBMP28-7" value="&lt;font style=&quot;font-size: 16px;&quot;&gt;Conv2D_BN_ReLU&lt;/font&gt;" style="rounded=0;whiteSpace=wrap;html=1;fontSize=20;" vertex="1" parent="6SteIcs9atlxRpSBMP28-83">
          <mxGeometry x="12" y="97.23577235772358" width="270" height="31.70731707317073" as="geometry" />
        </mxCell>
        <mxCell id="6SteIcs9atlxRpSBMP28-8" value="" style="endArrow=classic;html=1;rounded=0;fontSize=30;" edge="1" parent="6SteIcs9atlxRpSBMP28-83">
          <mxGeometry width="50" height="50" relative="1" as="geometry">
            <mxPoint x="107.4133333333329" y="128.9430894308943" as="sourcePoint" />
            <mxPoint x="107.4133333333329" y="160.65040650406505" as="targetPoint" />
          </mxGeometry>
        </mxCell>
        <mxCell id="6SteIcs9atlxRpSBMP28-9" value="&lt;font style=&quot;font-size: 16px;&quot;&gt;SeparableConv_ReLU&lt;/font&gt;" style="rounded=0;whiteSpace=wrap;html=1;fontSize=20;" vertex="1" parent="6SteIcs9atlxRpSBMP28-83">
          <mxGeometry x="12" y="160.65040650406505" width="190" height="31.70731707317073" as="geometry" />
        </mxCell>
        <mxCell id="6SteIcs9atlxRpSBMP28-10" value="&lt;font style=&quot;font-size: 16px;&quot;&gt;SeparableConv_MaxPool&lt;/font&gt;" style="rounded=0;whiteSpace=wrap;html=1;fontSize=20;" vertex="1" parent="6SteIcs9atlxRpSBMP28-83">
          <mxGeometry x="12" y="192.35772357723576" width="190" height="31.70731707317073" as="geometry" />
        </mxCell>
        <mxCell id="6SteIcs9atlxRpSBMP28-11" value="Conv2D" style="rounded=0;whiteSpace=wrap;html=1;fontSize=16;" vertex="1" parent="6SteIcs9atlxRpSBMP28-83">
          <mxGeometry x="222" y="160.65040650406505" width="60" height="63.41463414634146" as="geometry" />
        </mxCell>
        <mxCell id="6SteIcs9atlxRpSBMP28-12" value="&lt;font style=&quot;font-size: 16px;&quot;&gt;ReLU_SeparableConv&lt;/font&gt;" style="rounded=0;whiteSpace=wrap;html=1;fontSize=20;" vertex="1" parent="6SteIcs9atlxRpSBMP28-83">
          <mxGeometry x="12" y="255.77235772357724" width="190" height="31.70731707317073" as="geometry" />
        </mxCell>
        <mxCell id="6SteIcs9atlxRpSBMP28-13" value="&lt;font style=&quot;font-size: 16px;&quot;&gt;ReLU_SeparableConv&lt;/font&gt;" style="rounded=0;whiteSpace=wrap;html=1;fontSize=20;" vertex="1" parent="6SteIcs9atlxRpSBMP28-83">
          <mxGeometry x="12" y="287.479674796748" width="190" height="31.70731707317073" as="geometry" />
        </mxCell>
        <mxCell id="6SteIcs9atlxRpSBMP28-14" value="Conv2D" style="rounded=0;whiteSpace=wrap;html=1;fontSize=16;" vertex="1" parent="6SteIcs9atlxRpSBMP28-83">
          <mxGeometry x="222" y="255.77235772357724" width="60" height="95.1219512195122" as="geometry" />
        </mxCell>
        <mxCell id="6SteIcs9atlxRpSBMP28-18" value="&lt;font style=&quot;font-size: 16px;&quot;&gt;MaxPool&lt;/font&gt;" style="rounded=0;whiteSpace=wrap;html=1;fontSize=20;" vertex="1" parent="6SteIcs9atlxRpSBMP28-83">
          <mxGeometry x="12" y="319.1869918699187" width="190" height="31.70731707317073" as="geometry" />
        </mxCell>
        <mxCell id="6SteIcs9atlxRpSBMP28-19" value="&lt;font style=&quot;font-size: 16px;&quot;&gt;ReLU_SeparableConv&lt;/font&gt;" style="rounded=0;whiteSpace=wrap;html=1;fontSize=20;" vertex="1" parent="6SteIcs9atlxRpSBMP28-83">
          <mxGeometry x="12" y="382.6016260162601" width="190" height="31.70731707317073" as="geometry" />
        </mxCell>
        <mxCell id="6SteIcs9atlxRpSBMP28-20" value="&lt;font style=&quot;font-size: 16px;&quot;&gt;ReLU_SeparableConv&lt;/font&gt;" style="rounded=0;whiteSpace=wrap;html=1;fontSize=20;" vertex="1" parent="6SteIcs9atlxRpSBMP28-83">
          <mxGeometry x="12" y="414.3089430894309" width="190" height="31.70731707317073" as="geometry" />
        </mxCell>
        <mxCell id="6SteIcs9atlxRpSBMP28-21" value="Conv2D" style="rounded=0;whiteSpace=wrap;html=1;fontSize=16;" vertex="1" parent="6SteIcs9atlxRpSBMP28-83">
          <mxGeometry x="222" y="382.6016260162601" width="60" height="95.1219512195122" as="geometry" />
        </mxCell>
        <mxCell id="6SteIcs9atlxRpSBMP28-22" value="&lt;font style=&quot;font-size: 16px;&quot;&gt;MaxPool&lt;/font&gt;" style="rounded=0;whiteSpace=wrap;html=1;fontSize=20;" vertex="1" parent="6SteIcs9atlxRpSBMP28-83">
          <mxGeometry x="12" y="446.0162601626016" width="190" height="31.70731707317073" as="geometry" />
        </mxCell>
        <mxCell id="6SteIcs9atlxRpSBMP28-23" value="&lt;font style=&quot;font-size: 16px;&quot;&gt;latent output&lt;/font&gt;" style="rounded=0;whiteSpace=wrap;html=1;fontSize=20;align=center;" vertex="1" parent="6SteIcs9atlxRpSBMP28-83">
          <mxGeometry x="12" y="477.7235772357723" width="270" height="21.13821138211382" as="geometry" />
        </mxCell>
        <mxCell id="6SteIcs9atlxRpSBMP28-24" value="" style="endArrow=classic;html=1;rounded=0;fontSize=30;" edge="1" parent="6SteIcs9atlxRpSBMP28-83">
          <mxGeometry width="50" height="50" relative="1" as="geometry">
            <mxPoint x="252.41333333333284" y="128.9430894308943" as="sourcePoint" />
            <mxPoint x="252.41333333333284" y="160.65040650406505" as="targetPoint" />
          </mxGeometry>
        </mxCell>
        <mxCell id="6SteIcs9atlxRpSBMP28-25" value="" style="endArrow=classic;html=1;rounded=0;fontSize=30;" edge="1" parent="6SteIcs9atlxRpSBMP28-83">
          <mxGeometry width="50" height="50" relative="1" as="geometry">
            <mxPoint x="107.4133333333329" y="224.0650406504065" as="sourcePoint" />
            <mxPoint x="107.4133333333329" y="255.77235772357724" as="targetPoint" />
          </mxGeometry>
        </mxCell>
        <mxCell id="6SteIcs9atlxRpSBMP28-26" value="" style="endArrow=classic;html=1;rounded=0;fontSize=30;" edge="1" parent="6SteIcs9atlxRpSBMP28-83">
          <mxGeometry width="50" height="50" relative="1" as="geometry">
            <mxPoint x="107.41333333333287" y="350.8943089430894" as="sourcePoint" />
            <mxPoint x="107.41333333333287" y="382.6016260162601" as="targetPoint" />
          </mxGeometry>
        </mxCell>
        <mxCell id="6SteIcs9atlxRpSBMP28-27" value="" style="endArrow=classic;html=1;rounded=0;fontSize=30;" edge="1" parent="6SteIcs9atlxRpSBMP28-83">
          <mxGeometry width="50" height="50" relative="1" as="geometry">
            <mxPoint x="252.41333333333284" y="224.0650406504065" as="sourcePoint" />
            <mxPoint x="252.41333333333284" y="255.77235772357724" as="targetPoint" />
          </mxGeometry>
        </mxCell>
        <mxCell id="6SteIcs9atlxRpSBMP28-28" value="" style="endArrow=classic;html=1;rounded=0;fontSize=30;" edge="1" parent="6SteIcs9atlxRpSBMP28-83">
          <mxGeometry width="50" height="50" relative="1" as="geometry">
            <mxPoint x="252.41333333333296" y="350.8943089430894" as="sourcePoint" />
            <mxPoint x="252.41333333333296" y="382.6016260162601" as="targetPoint" />
          </mxGeometry>
        </mxCell>
        <mxCell id="6SteIcs9atlxRpSBMP28-29" value="Latent Layer" style="text;html=1;align=center;verticalAlign=middle;resizable=0;points=[];autosize=1;strokeColor=none;fillColor=default;fontSize=16;" vertex="1" parent="6SteIcs9atlxRpSBMP28-83">
          <mxGeometry x="95" width="110" height="30" as="geometry" />
        </mxCell>
        <mxCell id="6SteIcs9atlxRpSBMP28-51" value="&lt;b&gt;+&lt;/b&gt;" style="text;html=1;align=center;verticalAlign=middle;resizable=0;points=[];autosize=1;strokeColor=none;fillColor=none;fontSize=16;" vertex="1" parent="6SteIcs9atlxRpSBMP28-83">
          <mxGeometry x="197" y="176.5040650406504" width="30" height="30" as="geometry" />
        </mxCell>
        <mxCell id="6SteIcs9atlxRpSBMP28-52" value="&lt;b&gt;+&lt;/b&gt;" style="text;html=1;align=center;verticalAlign=middle;resizable=0;points=[];autosize=1;strokeColor=none;fillColor=none;fontSize=16;" vertex="1" parent="6SteIcs9atlxRpSBMP28-83">
          <mxGeometry x="197" y="290.650406504065" width="30" height="30" as="geometry" />
        </mxCell>
        <mxCell id="6SteIcs9atlxRpSBMP28-53" value="&lt;b&gt;+&lt;/b&gt;" style="text;html=1;align=center;verticalAlign=middle;resizable=0;points=[];autosize=1;strokeColor=none;fillColor=none;fontSize=16;" vertex="1" parent="6SteIcs9atlxRpSBMP28-83">
          <mxGeometry x="197" y="415.3658536585366" width="30" height="30" as="geometry" />
        </mxCell>
        <mxCell id="6SteIcs9atlxRpSBMP28-84" value="" style="group" vertex="1" connectable="0" parent="1">
          <mxGeometry x="356.75" y="420" width="296.5" height="214.5" as="geometry" />
        </mxCell>
        <mxCell id="6SteIcs9atlxRpSBMP28-67" value="" style="rounded=1;whiteSpace=wrap;html=1;fontSize=16;fillColor=default;" vertex="1" parent="6SteIcs9atlxRpSBMP28-84">
          <mxGeometry y="14.5" width="296.5" height="200" as="geometry" />
        </mxCell>
        <mxCell id="6SteIcs9atlxRpSBMP28-30" value="&lt;font style=&quot;font-size: 16px;&quot;&gt;input&lt;/font&gt;" style="rounded=0;whiteSpace=wrap;html=1;fontSize=20;align=center;" vertex="1" parent="6SteIcs9atlxRpSBMP28-84">
          <mxGeometry x="12.5" y="37" width="260" height="20" as="geometry" />
        </mxCell>
        <mxCell id="6SteIcs9atlxRpSBMP28-33" value="" style="endArrow=classic;html=1;rounded=0;fontSize=30;" edge="1" parent="6SteIcs9atlxRpSBMP28-84">
          <mxGeometry width="50" height="50" relative="1" as="geometry">
            <mxPoint x="107.91333333333341" y="57" as="sourcePoint" />
            <mxPoint x="107.91333333333341" y="87" as="targetPoint" />
          </mxGeometry>
        </mxCell>
        <mxCell id="6SteIcs9atlxRpSBMP28-34" value="&lt;font style=&quot;font-size: 16px;&quot;&gt;ReLU_SeparableConv&lt;/font&gt;" style="rounded=0;whiteSpace=wrap;html=1;fontSize=20;" vertex="1" parent="6SteIcs9atlxRpSBMP28-84">
          <mxGeometry x="12.5" y="87" width="190" height="30" as="geometry" />
        </mxCell>
        <mxCell id="6SteIcs9atlxRpSBMP28-35" value="&lt;span style=&quot;font-size: 16px;&quot;&gt;ReLU_SeparableConv&lt;/span&gt;" style="rounded=0;whiteSpace=wrap;html=1;fontSize=20;" vertex="1" parent="6SteIcs9atlxRpSBMP28-84">
          <mxGeometry x="12.5" y="117" width="190" height="30" as="geometry" />
        </mxCell>
        <mxCell id="6SteIcs9atlxRpSBMP28-37" value="" style="endArrow=classic;html=1;rounded=0;fontSize=30;entryX=0.885;entryY=0;entryDx=0;entryDy=0;entryPerimeter=0;" edge="1" parent="6SteIcs9atlxRpSBMP28-84" target="6SteIcs9atlxRpSBMP28-40">
          <mxGeometry width="50" height="50" relative="1" as="geometry">
            <mxPoint x="243.1199999999999" y="57" as="sourcePoint" />
            <mxPoint x="243.1199999999999" y="87" as="targetPoint" />
          </mxGeometry>
        </mxCell>
        <mxCell id="6SteIcs9atlxRpSBMP28-38" value="Middle Block&amp;nbsp;" style="text;html=1;align=center;verticalAlign=middle;resizable=0;points=[];autosize=1;strokeColor=none;fillColor=default;fontSize=16;" vertex="1" parent="6SteIcs9atlxRpSBMP28-84">
          <mxGeometry x="96.5" width="120" height="30" as="geometry" />
        </mxCell>
        <mxCell id="6SteIcs9atlxRpSBMP28-39" value="&lt;span style=&quot;font-size: 16px;&quot;&gt;ReLU_SeparableConv&lt;/span&gt;" style="rounded=0;whiteSpace=wrap;html=1;fontSize=20;" vertex="1" parent="6SteIcs9atlxRpSBMP28-84">
          <mxGeometry x="12.5" y="147" width="190" height="30" as="geometry" />
        </mxCell>
        <mxCell id="6SteIcs9atlxRpSBMP28-40" value="&lt;span style=&quot;font-size: 16px;&quot;&gt;middle block output&lt;/span&gt;" style="rounded=0;whiteSpace=wrap;html=1;fontSize=20;align=center;" vertex="1" parent="6SteIcs9atlxRpSBMP28-84">
          <mxGeometry x="12.5" y="177" width="260" height="20" as="geometry" />
        </mxCell>
        <mxCell id="6SteIcs9atlxRpSBMP28-85" value="" style="group" vertex="1" connectable="0" parent="1">
          <mxGeometry x="350" y="646" width="310" height="294" as="geometry" />
        </mxCell>
        <mxCell id="6SteIcs9atlxRpSBMP28-68" value="" style="rounded=1;whiteSpace=wrap;html=1;fontSize=16;fillColor=default;" vertex="1" parent="6SteIcs9atlxRpSBMP28-85">
          <mxGeometry y="12.5" width="310" height="281.5" as="geometry" />
        </mxCell>
        <mxCell id="6SteIcs9atlxRpSBMP28-43" value="Semantics Layer" style="text;html=1;align=center;verticalAlign=middle;resizable=0;points=[];autosize=1;strokeColor=none;fillColor=default;fontSize=16;" vertex="1" parent="6SteIcs9atlxRpSBMP28-85">
          <mxGeometry x="91.25" width="140" height="30" as="geometry" />
        </mxCell>
        <mxCell id="6SteIcs9atlxRpSBMP28-45" value="" style="endArrow=classic;html=1;rounded=0;fontSize=30;" edge="1" parent="6SteIcs9atlxRpSBMP28-85">
          <mxGeometry width="50" height="50" relative="1" as="geometry">
            <mxPoint x="109.91333333333341" y="45.5" as="sourcePoint" />
            <mxPoint x="109.91333333333341" y="75.5" as="targetPoint" />
          </mxGeometry>
        </mxCell>
        <mxCell id="6SteIcs9atlxRpSBMP28-46" value="&lt;font style=&quot;font-size: 16px;&quot;&gt;ReLU_SeparableConv&lt;/font&gt;" style="rounded=0;whiteSpace=wrap;html=1;fontSize=20;" vertex="1" parent="6SteIcs9atlxRpSBMP28-85">
          <mxGeometry x="14.5" y="75.5" width="190" height="30" as="geometry" />
        </mxCell>
        <mxCell id="6SteIcs9atlxRpSBMP28-47" value="&lt;span style=&quot;font-size: 16px;&quot;&gt;ReLU_SeparableConv&lt;/span&gt;" style="rounded=0;whiteSpace=wrap;html=1;fontSize=20;" vertex="1" parent="6SteIcs9atlxRpSBMP28-85">
          <mxGeometry x="14.5" y="105.5" width="190" height="30" as="geometry" />
        </mxCell>
        <mxCell id="6SteIcs9atlxRpSBMP28-49" value="&lt;span style=&quot;font-size: 16px;&quot;&gt;Maxpool&lt;/span&gt;" style="rounded=0;whiteSpace=wrap;html=1;fontSize=20;" vertex="1" parent="6SteIcs9atlxRpSBMP28-85">
          <mxGeometry x="14.5" y="135.5" width="190" height="30" as="geometry" />
        </mxCell>
        <mxCell id="6SteIcs9atlxRpSBMP28-55" value="Conv2D" style="rounded=0;whiteSpace=wrap;html=1;fontSize=16;" vertex="1" parent="6SteIcs9atlxRpSBMP28-85">
          <mxGeometry x="224.5" y="80.5" width="60" height="60" as="geometry" />
        </mxCell>
        <mxCell id="6SteIcs9atlxRpSBMP28-56" value="" style="endArrow=classic;html=1;rounded=0;fontSize=30;entryX=0.5;entryY=0;entryDx=0;entryDy=0;" edge="1" parent="6SteIcs9atlxRpSBMP28-85">
          <mxGeometry width="50" height="50" relative="1" as="geometry">
            <mxPoint x="255.50000000000057" y="47.5" as="sourcePoint" />
            <mxPoint x="255.5" y="79.5" as="targetPoint" />
          </mxGeometry>
        </mxCell>
        <mxCell id="6SteIcs9atlxRpSBMP28-58" value="&lt;span style=&quot;font-size: 16px;&quot;&gt;SeparableConv_&lt;/span&gt;&lt;span style=&quot;font-size: 16px;&quot;&gt;ReLU&lt;/span&gt;" style="rounded=0;whiteSpace=wrap;html=1;fontSize=20;" vertex="1" parent="6SteIcs9atlxRpSBMP28-85">
          <mxGeometry x="14.5" y="165.5" width="270" height="30" as="geometry" />
        </mxCell>
        <mxCell id="6SteIcs9atlxRpSBMP28-59" value="&lt;span style=&quot;font-size: 16px;&quot;&gt;SeparableConv_&lt;/span&gt;&lt;span style=&quot;font-size: 16px;&quot;&gt;ReLU&lt;/span&gt;" style="rounded=0;whiteSpace=wrap;html=1;fontSize=20;" vertex="1" parent="6SteIcs9atlxRpSBMP28-85">
          <mxGeometry x="14.5" y="195.5" width="270" height="30" as="geometry" />
        </mxCell>
        <mxCell id="6SteIcs9atlxRpSBMP28-60" value="&lt;span style=&quot;font-size: 16px;&quot;&gt;GlobalAvagepooling&lt;/span&gt;" style="rounded=0;whiteSpace=wrap;html=1;fontSize=20;" vertex="1" parent="6SteIcs9atlxRpSBMP28-85">
          <mxGeometry x="14.5" y="225.5" width="270" height="30" as="geometry" />
        </mxCell>
        <mxCell id="6SteIcs9atlxRpSBMP28-61" value="&lt;font style=&quot;font-size: 16px;&quot;&gt;input&lt;/font&gt;" style="rounded=0;whiteSpace=wrap;html=1;fontSize=20;align=center;" vertex="1" parent="6SteIcs9atlxRpSBMP28-85">
          <mxGeometry x="14.5" y="37" width="270" height="20" as="geometry" />
        </mxCell>
        <mxCell id="6SteIcs9atlxRpSBMP28-62" value="" style="endArrow=classic;html=1;rounded=0;fontSize=30;entryX=0.909;entryY=-0.112;entryDx=0;entryDy=0;entryPerimeter=0;" edge="1" parent="6SteIcs9atlxRpSBMP28-85">
          <mxGeometry width="50" height="50" relative="1" as="geometry">
            <mxPoint x="255.93000000000063" y="141.5" as="sourcePoint" />
            <mxPoint x="255.93000000000006" y="163.13999999999987" as="targetPoint" />
          </mxGeometry>
        </mxCell>
        <mxCell id="6SteIcs9atlxRpSBMP28-63" value="&lt;b&gt;+&lt;/b&gt;" style="text;html=1;align=center;verticalAlign=middle;resizable=0;points=[];autosize=1;strokeColor=none;fillColor=none;fontSize=16;" vertex="1" parent="6SteIcs9atlxRpSBMP28-85">
          <mxGeometry x="199.5" y="95.5" width="30" height="30" as="geometry" />
        </mxCell>
        <mxCell id="6SteIcs9atlxRpSBMP28-64" value="&lt;font style=&quot;font-size: 16px;&quot;&gt;latent output&lt;/font&gt;" style="rounded=0;whiteSpace=wrap;html=1;fontSize=20;align=center;" vertex="1" parent="6SteIcs9atlxRpSBMP28-85">
          <mxGeometry x="14.5" y="255.5" width="270" height="20" as="geometry" />
        </mxCell>
        <mxCell id="6SteIcs9atlxRpSBMP28-256" value="" style="endArrow=classic;html=1;rounded=0;fontSize=30;entryX=0;entryY=0.5;entryDx=0;entryDy=0;" edge="1" parent="1" target="6SteIcs9atlxRpSBMP28-73">
          <mxGeometry width="50" height="50" relative="1" as="geometry">
            <mxPoint x="171" y="111.17647058823513" as="sourcePoint" />
            <mxPoint x="231" y="301.17647058823513" as="targetPoint" />
          </mxGeometry>
        </mxCell>
        <mxCell id="6SteIcs9atlxRpSBMP28-257" value="" style="endArrow=classic;html=1;rounded=0;fontSize=30;" edge="1" parent="1">
          <mxGeometry width="50" height="50" relative="1" as="geometry">
            <mxPoint x="171" y="250.5864705882351" as="sourcePoint" />
            <mxPoint x="361" y="250" as="targetPoint" />
          </mxGeometry>
        </mxCell>
        <mxCell id="6SteIcs9atlxRpSBMP28-258" value="" style="endArrow=classic;html=1;rounded=0;fontSize=30;exitX=0.5;exitY=1;exitDx=0;exitDy=0;entryX=0;entryY=0.5;entryDx=0;entryDy=0;" edge="1" parent="1" source="6SteIcs9atlxRpSBMP28-3" target="6SteIcs9atlxRpSBMP28-82">
          <mxGeometry width="50" height="50" relative="1" as="geometry">
            <mxPoint x="168.25" y="430.586470588235" as="sourcePoint" />
            <mxPoint x="358.25" y="430" as="targetPoint" />
            <Array as="points">
              <mxPoint x="171" y="357" />
            </Array>
          </mxGeometry>
        </mxCell>
        <mxCell id="6SteIcs9atlxRpSBMP28-259" value="" style="endArrow=classic;html=1;rounded=0;fontSize=22;entryX=0.5;entryY=0;entryDx=0;entryDy=0;" edge="1" parent="1" target="6SteIcs9atlxRpSBMP28-1">
          <mxGeometry width="50" height="50" relative="1" as="geometry">
            <mxPoint x="171" y="20" as="sourcePoint" />
            <mxPoint x="211" y="-30" as="targetPoint" />
          </mxGeometry>
        </mxCell>
        <mxCell id="6SteIcs9atlxRpSBMP28-261" value="" style="endArrow=classic;html=1;rounded=0;fontSize=22;entryX=0.5;entryY=0;entryDx=0;entryDy=0;" edge="1" parent="1" target="6SteIcs9atlxRpSBMP28-263">
          <mxGeometry width="50" height="50" relative="1" as="geometry">
            <mxPoint x="475.75" y="170" as="sourcePoint" />
            <mxPoint x="587.0050000000001" y="190" as="targetPoint" />
            <Array as="points">
              <mxPoint x="585" y="170" />
            </Array>
          </mxGeometry>
        </mxCell>
        <mxCell id="6SteIcs9atlxRpSBMP28-262" value="" style="endArrow=classic;html=1;rounded=0;fontSize=22;entryX=0;entryY=0.5;entryDx=0;entryDy=0;" edge="1" parent="1" target="6SteIcs9atlxRpSBMP28-263">
          <mxGeometry width="50" height="50" relative="1" as="geometry">
            <mxPoint x="499.25" y="250" as="sourcePoint" />
            <mxPoint x="549.25" y="170" as="targetPoint" />
          </mxGeometry>
        </mxCell>
        <mxCell id="6SteIcs9atlxRpSBMP28-263" value="&lt;b&gt;+&lt;/b&gt;" style="ellipse;whiteSpace=wrap;html=1;aspect=fixed;fontSize=22;fillColor=none;strokeColor=default;" vertex="1" parent="1">
          <mxGeometry x="570.25" y="235" width="30" height="30" as="geometry" />
        </mxCell>
        <mxCell id="6SteIcs9atlxRpSBMP28-264" value="" style="endArrow=classic;html=1;rounded=0;fontSize=22;entryX=0.5;entryY=1;entryDx=0;entryDy=0;" edge="1" parent="1" target="6SteIcs9atlxRpSBMP28-263">
          <mxGeometry width="50" height="50" relative="1" as="geometry">
            <mxPoint x="525.75" y="360" as="sourcePoint" />
            <mxPoint x="575.75" y="310" as="targetPoint" />
            <Array as="points">
              <mxPoint x="585" y="360" />
            </Array>
          </mxGeometry>
        </mxCell>
        <mxCell id="6SteIcs9atlxRpSBMP28-265" value="" style="endArrow=classic;html=1;rounded=0;fontSize=22;" edge="1" parent="1">
          <mxGeometry width="50" height="50" relative="1" as="geometry">
            <mxPoint x="600.25" y="251.1764705882356" as="sourcePoint" />
            <mxPoint x="671" y="250" as="targetPoint" />
          </mxGeometry>
        </mxCell>
      </root>
    </mxGraphModel>
  </diagram>
</mxfile>
